#tb 0: 1/22050
#media_type 0: audio
#codec_id 0: pcm_s16le
#sample_rate 0: 22050
#channel_layout 0: 3
0,          0,          0,     1484,     5936, 0x00000000
0,       1484,       1484,     1456,     5824, 0x00000000
0,       2940,       2940,     1484,     5936, 0x00000000
0,       4424,       4424,     1456,     5824, 0x00000000
0,       5880,       5880,     1484,     5936, 0x00000000
0,       7364,       7364,     1456,     5824, 0x00000000
0,       8820,       8820,     1484,     5936, 0x00000000
0,      10304,      10304,     1456,     5824, 0x0f06f5bb
0,      11760,      11760,     1484,     5936, 0xb0dbfc46
0,      13244,      13244,     1456,     5824, 0x9daa9f9c
0,      14700,      14700,     1484,     5936, 0x61400d2f
0,      16184,      16184,     1456,     5824, 0x34a5b0e3
0,      17640,      17640,     1484,     5936, 0x6e546f72
0,      19124,      19124,     1456,     5824, 0x4f093b35
0,      20580,      20580,     1484,     5936, 0x95b5b599
0,      22064,      22064,     1456,     5824, 0x75e15e60
0,      23520,      23520,     1484,     5936, 0xd1077d39
0,      25004,      25004,     1456,     5824, 0x956e21ca
0,      26460,      26460,     1484,     5936, 0x33bac234
0,      27944,      27944,     1456,     5824, 0x5df37824
0,      29400,      29400,     1484,     5936, 0xc174af24
0,      30884,      30884,     1456,     5824, 0xe5dc2159
0,      32340,      32340,     1484,     5936, 0x63ffc8b1
0,      33824,      33824,     1456,     5824, 0xefe4c365
0,      35280,      35280,     1484,     5936, 0x2174304d
